HIERARCHY
ROOT Hips
{
	OFFSET 0.000000 0.000000 0.000000 
	CHANNELS 6 Xposition Yposition Zposition Zrotation Yrotation Xrotation
	JOINT LeftUpLeg
	{
		OFFSET 1.363060 -1.794630 0.839290 
		CHANNELS 3 Zrotation Yrotation Xrotation
		JOINT LeftLeg
		{
			OFFSET 2.448110 -6.726130 0.000000 
			CHANNELS 3 Zrotation Yrotation Xrotation
			JOINT LeftFoot
			{
				OFFSET 2.562200 -7.039590 0.000000 
				CHANNELS 3 Zrotation Yrotation Xrotation
				JOINT LeftToeBase
				{
					OFFSET 0.157640 -0.433110 2.322550 
					CHANNELS 3 Zrotation Yrotation Xrotation
					End Site
					{
						OFFSET 0.000000 0.000000 0.000000 
					}
				}
			}
		}
	}
	JOINT RightUpLeg
	{
		OFFSET -1.305520 -1.794630 0.839290 
		CHANNELS 3 Zrotation Yrotation Xrotation
		JOINT RightLeg
		{
			OFFSET -2.542530 -6.985550 0.000000 
			CHANNELS 3 Zrotation Yrotation Xrotation
			JOINT RightFoot
			{
				OFFSET -2.568260 -7.056230 0.000000 
				CHANNELS 3 Zrotation Yrotation Xrotation
				JOINT RightToeBase
				{
					OFFSET -0.164730 -0.452590 2.363150 
					CHANNELS 3 Zrotation Yrotation Xrotation
					End Site
					{
						OFFSET 0.000000 0.000000 0.000000 
					}
				}
			}
		}
	}
	JOINT Spine
	{
		OFFSET 0.028270 2.035590 -0.193380 
		CHANNELS 3 Zrotation Yrotation Xrotation
		JOINT Spine1
		{
			OFFSET 0.056720 2.048850 -0.042750 
			CHANNELS 3 Zrotation Yrotation Xrotation
			JOINT Neck1
			{
				OFFSET -0.054170 1.746240 0.172020 
				CHANNELS 3 Zrotation Yrotation Xrotation
				JOINT Head
				{
					OFFSET 0.104070 1.761360 -0.123970 
					CHANNELS 3 Zrotation Yrotation Xrotation
					End Site
					{
						OFFSET 0.000000 0.000000 0.000000 
					}
				}
			}
			JOINT LeftArm
			{
				OFFSET 3.362410 1.200890 -0.311210 
				CHANNELS 3 Zrotation Yrotation Xrotation
				JOINT LeftForeArm
				{
					OFFSET 4.983000 -0.000000 -0.000000 
					CHANNELS 3 Zrotation Yrotation Xrotation
					JOINT LeftHand
					{
						OFFSET 3.483560 -0.000000 -0.000000 
						CHANNELS 3 Zrotation Yrotation Xrotation
						JOINT LeftHandIndex1
						{
							OFFSET 0.715260 -0.000000 -0.000000 
							CHANNELS 3 Zrotation Yrotation Xrotation
							End Site
							{
								OFFSET 0.000000 0.000000 0.000000 
							}
						}
					}
				}
			}
			JOINT RightArm
			{
				OFFSET -3.136600 1.374050 -0.404650 
				CHANNELS 3 Zrotation Yrotation Xrotation
				JOINT RightForeArm
				{
					OFFSET -5.241900 -0.000000 -0.000000 
					CHANNELS 3 Zrotation Yrotation Xrotation
					JOINT RightHand
					{
						OFFSET -3.444170 -0.000000 -0.000000 
						CHANNELS 3 Zrotation Yrotation Xrotation
						JOINT RightHandIndex1
						{
							OFFSET -0.622530 -0.000000 -0.000000 
							CHANNELS 3 Zrotation Yrotation Xrotation
							End Site
							{
								OFFSET 0.000000 0.000000 0.000000 
							}
						}
					}
				}
			}
		}
	}
}
MOTION
Frames: 12
Frame Time: 0.041667
-5.180222 16.638549 40.766630 -171.191257 -62.260379 -174.333496 -20.156621 5.784369 -35.916236 2.341422 15.429233 39.340203 -1.332180 7.000242 -5.937805 0.040600 -1.300300 -3.575500 28.099242 -12.448838 -13.693526 -5.707742 -17.281157 49.852203 -1.852265 2.616310 17.338100 -2.720600 10.228400 -29.719700 0.800909 7.085623 -4.111725 0.511575 3.292304 -9.985381 14.514897 -7.786243 13.894899 25.653100 -7.476800 6.483200 -63.870875 6.778769 -0.887217 23.384191 -29.534320 -9.038107 -0.965526 -1.189669 -62.110153 -7.125000 0.000000 0.000000 72.648671 0.861564 7.020240 -27.790999 36.956245 -13.181595 0.894144 1.953760 -32.024250 7.125000 0.000000 0.000000 
-5.192887 16.690299 40.748834 -171.094679 -62.352888 -174.451282 -20.002617 5.735241 -35.356707 2.103945 15.166561 38.454191 -1.409056 7.206594 -5.461559 0.042600 -1.332200 -3.663300 28.187388 -12.370178 -14.191696 -5.873057 -17.429160 50.391253 -1.817613 2.373339 17.633450 -2.673100 10.146100 -29.451100 0.816441 6.993847 -4.123388 0.630808 3.263403 -10.063204 14.548361 -7.945731 13.742711 25.703200 -7.521900 6.456300 -64.082560 6.706459 0.046554 23.432116 -29.586673 -9.036556 -0.956484 -1.141666 -61.485998 -7.125000 0.000000 0.000000 72.516694 0.707729 8.901390 -28.459165 37.517182 -13.588833 0.894743 1.918099 -31.992965 7.125000 0.000000 0.000000 
-5.205115 16.740084 40.730711 -170.967743 -62.448705 -174.598758 -19.840701 5.711967 -34.819306 1.879474 14.905510 37.594497 -1.477463 7.391679 -4.981554 0.046500 -1.391800 -3.827400 28.288440 -12.301215 -14.705266 -6.026737 -17.568575 50.905238 -1.797452 2.299702 17.655357 -2.641700 10.091100 -29.272200 0.838132 6.885628 -4.134164 0.767210 3.228641 -10.136866 14.580915 -8.083133 13.598144 25.751300 -7.556200 6.426800 -64.307391 6.660595 1.043034 23.498576 -29.659897 -9.046526 -0.945839 -1.095927 -60.873271 -7.125000 0.000000 0.000000 72.377175 0.564924 10.759600 -29.146187 38.075820 -14.007927 0.896662 1.877357 -31.837438 7.125000 0.000000 0.000000 
-5.216797 16.787685 40.712369 -170.805808 -62.552442 -174.775336 -19.669569 5.707696 -34.308318 1.668839 14.648605 36.767089 -1.534744 7.548187 -4.505296 0.051300 -1.462000 -4.020900 28.407429 -12.237719 -15.233124 -6.163626 -17.696370 51.378079 -1.788939 2.389835 17.373923 -2.630800 10.072000 -29.210200 0.862225 6.770852 -4.144708 0.905262 3.190451 -10.208211 14.612531 -8.213292 13.451613 25.790400 -7.583700 6.389300 -64.532808 6.626483 2.097621 23.581106 -29.750331 -9.066463 -0.934485 -1.053425 -60.285812 -7.125000 0.000000 0.000000 72.239565 0.422304 12.593393 -29.848848 38.632458 -14.440065 0.896516 1.837889 -31.588458 7.125000 0.000000 0.000000 
-5.228479 16.832666 40.696320 -170.626881 -62.696546 -174.957832 -19.497849 5.668349 -33.822115 1.469683 14.401046 35.973501 -1.586171 7.692795 -4.039875 0.057400 -1.546400 -4.253700 28.526948 -12.206022 -15.804173 -6.281130 -17.809118 51.798789 -1.795760 2.640204 16.823271 -2.631000 10.072300 -29.211000 0.884967 6.641380 -4.156419 1.014633 3.139438 -10.275678 14.640940 -8.341539 13.300643 25.817400 -7.606500 6.342000 -64.754262 6.601560 3.221115 23.672176 -29.850482 -9.091248 -0.924205 -1.012816 -59.696604 -7.125000 0.000000 0.000000 72.094387 0.281787 14.394235 -30.556491 39.179422 -14.878911 0.894413 1.800285 -31.216983 7.125000 0.000000 0.000000 
-5.240379 16.875027 40.681799 -170.425065 -62.869136 -175.150103 -19.322989 5.605827 -33.361419 1.282562 14.162751 35.215894 -1.630432 7.821666 -3.591795 0.063900 -1.630400 -4.485300 28.647789 -12.198525 -16.408481 -6.375866 -17.904498 52.151454 -1.818305 3.013378 16.073514 -2.636800 10.082600 -29.244500 0.905878 6.504650 -4.169901 1.098922 3.080244 -10.343512 14.667927 -8.472557 13.144084 25.837600 -7.628100 6.286200 -64.970719 6.584420 4.408637 23.767140 -29.955584 -9.118117 -0.915185 -0.973825 -59.078083 -7.125000 0.000000 0.000000 71.943088 0.133263 16.171844 -31.273666 39.721591 -15.328588 0.889933 1.765847 -30.760438 7.125000 0.000000 0.000000 
-5.251624 16.914985 40.667060 -170.201864 -63.054903 -175.361455 -19.144905 5.549555 -32.925976 1.108584 13.932913 34.496234 -1.664561 7.924655 -3.158296 0.071200 -1.721700 -4.737200 28.775567 -12.191323 -17.018550 -6.447123 -17.982781 52.426986 -1.850153 3.437412 15.204592 -2.644400 10.095900 -29.287800 0.925050 6.368888 -4.184165 1.171281 3.019495 -10.414987 14.696704 -8.613646 12.981786 25.859300 -7.653800 6.229900 -65.172868 6.564831 5.625484 23.857873 -30.057451 -9.144468 -0.911628 -0.935456 -58.469235 -7.125000 0.000000 0.000000 71.786480 -0.022923 17.923620 -32.001841 40.258275 -15.788503 0.883410 1.732932 -30.224328 7.125000 0.000000 0.000000 
-5.262323 16.952870 40.652649 -169.958696 -63.261469 -175.594204 -18.962499 5.485000 -32.506771 0.946277 13.712212 33.812856 -1.691755 8.011231 -2.741144 0.080100 -1.826100 -5.025400 28.907547 -12.189255 -17.630894 -6.495517 -18.043376 52.619346 -1.883255 3.839850 14.298548 -2.651400 10.108100 -29.327500 0.943793 6.232561 -4.198641 1.235330 2.957050 -10.489317 14.725555 -8.768391 12.811606 25.878200 -7.683800 6.172400 -65.370008 6.539520 6.884692 23.949985 -30.159391 -9.169631 -0.905811 -0.898231 -57.840204 -7.125000 0.000000 0.000000 71.622025 -0.192230 19.652582 -32.752810 40.795763 -16.264243 0.878222 1.691786 -29.644140 7.125000 0.000000 0.000000 
-5.272477 16.988243 40.639439 -169.714519 -63.502368 -175.830141 -18.785920 5.391492 -32.101207 0.793791 13.502421 33.164436 -1.714656 8.089043 -2.342352 0.090400 -1.939100 -5.337500 29.029401 -12.216654 -18.257490 -6.525181 -18.086815 52.736704 -1.912520 4.183027 13.402469 -2.659800 10.122800 -29.375200 0.960017 6.085800 -4.215053 1.275753 2.885351 -10.574221 14.753481 -8.927678 12.636775 25.894700 -7.714700 6.112900 -65.558462 6.517922 8.155173 24.050397 -30.267717 -9.200728 -0.903066 -0.864605 -57.259897 -7.125000 0.000000 0.000000 71.457058 -0.375622 21.358307 -33.522764 41.330861 -16.753145 0.873409 1.642582 -29.011811 7.125000 0.000000 0.000000 
-5.281429 17.021979 40.623717 -169.463908 -63.731370 -176.086473 -18.610207 5.340508 -31.713107 0.653916 13.299684 32.552868 -1.725898 8.134832 -1.957673 0.102700 -2.066200 -5.688500 29.156191 -12.217639 -18.849127 -6.537080 -18.116564 52.780619 -1.921728 4.389784 12.508005 -2.672800 10.145600 -29.449500 0.978982 5.946585 -4.229011 1.344807 2.823104 -10.659137 14.785659 -9.093901 12.460105 25.918500 -7.749200 6.059700 -65.749412 6.484396 9.438041 24.160409 -30.383228 -9.236667 -0.898451 -0.833570 -56.743229 -7.125000 0.000000 0.000000 71.281565 -0.562391 23.036372 -34.309660 41.859464 -17.252315 0.868538 1.583463 -28.370346 7.125000 0.000000 0.000000 
-5.289508 17.053421 40.608542 -169.224452 -63.988690 -176.341132 -18.444898 5.270566 -31.335349 0.523528 13.108522 31.977346 -1.732851 8.171316 -1.588662 0.118100 -2.215600 -6.101800 29.267058 -12.245564 -19.446421 -6.537230 -18.133063 52.767898 -1.911912 4.469994 11.618857 -2.680400 10.158800 -29.492500 1.001727 5.787842 -4.244169 1.423648 2.752428 -10.755872 14.813954 -9.254521 12.286116 25.938900 -7.780800 6.007500 -65.959160 6.459960 10.708243 24.286108 -30.510373 -9.280334 -0.891267 -0.805927 -56.294588 -7.125000 0.000000 0.000000 71.084254 -0.760045 24.726162 -35.115361 42.384546 -17.764694 0.862750 1.516350 -27.746390 7.125000 0.000000 0.000000 
-5.296823 17.082681 40.593257 -168.983156 -64.263272 -176.602203 -18.286307 5.195755 -30.974625 0.403031 12.928466 31.439800 -1.730954 8.183846 -1.237999 0.134100 -2.360300 -6.502600 29.369390 -12.282992 -20.044519 -6.527981 -18.138931 52.706087 -1.874360 4.392274 10.704554 -2.681200 10.160100 -29.496700 1.027944 5.621441 -4.259636 1.516123 2.680171 -10.858966 14.839121 -9.418084 12.113679 25.956000 -7.813600 5.959100 -66.190838 6.428980 11.972515 24.420933 -30.642785 -9.327602 -0.882354 -0.780967 -55.891647 -7.125000 0.000000 0.000000 70.867155 -0.976721 26.423875 -35.950370 42.913231 -18.300117 0.854561 1.442424 -27.184482 7.125000 0.000000 0.000000 
